<?xml version="1.0" encoding="UTF-8" standalone="no"?>
<!DOCTYPE svg PUBLIC "-//W3C//DTD SVG 1.1//EN"
 "http://www.w3.org/Graphics/SVG/1.1/DTD/svg11.dtd">
<!-- Generated by graphviz version 13.1.0 (20250701.0955)
 -->
<!-- Title: JavaUML_Uncoiled Pages: 1 -->
<svg width="564pt" height="533pt"
 viewBox="0.00 0.00 564.00 533.00" xmlns="http://www.w3.org/2000/svg" xmlns:xlink="http://www.w3.org/1999/xlink">
<g id="graph0" class="graph" transform="scale(1 1) rotate(0) translate(4 528.5)">
<title>JavaUML_Uncoiled</title>
<polygon fill="white" stroke="none" points="-4,4 -4,-528.5 559.75,-528.5 559.75,4 -4,4"/>
<g id="clust1" class="cluster">
<title>cluster_enums</title>
<polygon fill="none" stroke="black" stroke-dasharray="5,2" points="39.25,-8 39.25,-131.5 399.25,-131.5 399.25,-8 39.25,-8"/>
<text xml:space="preserve" text-anchor="middle" x="219.25" y="-114.2" font-family="Times,serif" font-size="14.00">Enums</text>
</g>
<!-- Role -->
<g id="node1" class="node">
<title>Role</title>
<polygon fill="none" stroke="black" points="183,-24.75 183,-90.25 293.5,-90.25 293.5,-24.75 183,-24.75"/>
<text xml:space="preserve" text-anchor="middle" x="238.25" y="-72.95" font-family="Times,serif" font-size="14.00">Role</text>
<polyline fill="none" stroke="black" points="183,-65.75 293.5,-65.75"/>
<text xml:space="preserve" text-anchor="start" x="191" y="-48.45" font-family="Times,serif" font-size="14.00">+ SUPERVISOR</text>
<text xml:space="preserve" text-anchor="start" x="191" y="-31.95" font-family="Times,serif" font-size="14.00">+ WORKER</text>
</g>
<!-- Status -->
<g id="node2" class="node">
<title>Status</title>
<polygon fill="none" stroke="black" points="47.62,-16.5 47.62,-98.5 164.88,-98.5 164.88,-16.5 47.62,-16.5"/>
<text xml:space="preserve" text-anchor="middle" x="106.25" y="-81.2" font-family="Times,serif" font-size="14.00">Status</text>
<polyline fill="none" stroke="black" points="47.62,-74 164.88,-74"/>
<text xml:space="preserve" text-anchor="start" x="55.62" y="-56.7" font-family="Times,serif" font-size="14.00">+ FINISHED</text>
<text xml:space="preserve" text-anchor="start" x="55.62" y="-40.2" font-family="Times,serif" font-size="14.00">+ IN_PROGRESS</text>
<text xml:space="preserve" text-anchor="start" x="55.62" y="-23.7" font-family="Times,serif" font-size="14.00">+ OPEN</text>
</g>
<!-- MediaType -->
<g id="node3" class="node">
<title>MediaType</title>
<polygon fill="none" stroke="black" points="311.75,-16.5 311.75,-98.5 390.75,-98.5 390.75,-16.5 311.75,-16.5"/>
<text xml:space="preserve" text-anchor="middle" x="351.25" y="-81.2" font-family="Times,serif" font-size="14.00">MediaType</text>
<polyline fill="none" stroke="black" points="311.75,-74 390.75,-74"/>
<text xml:space="preserve" text-anchor="start" x="319.75" y="-56.7" font-family="Times,serif" font-size="14.00">+ PHOTO</text>
<text xml:space="preserve" text-anchor="start" x="319.75" y="-40.2" font-family="Times,serif" font-size="14.00">+ VIDEO</text>
<text xml:space="preserve" text-anchor="start" x="319.75" y="-23.7" font-family="Times,serif" font-size="14.00">+ AUDIO</text>
</g>
<!-- User -->
<g id="node4" class="node">
<title>User</title>
<polygon fill="none" stroke="black" points="155.5,-174.5 155.5,-273 299,-273 299,-174.5 155.5,-174.5"/>
<text xml:space="preserve" text-anchor="middle" x="227.25" y="-255.7" font-family="Times,serif" font-size="14.00">User</text>
<polyline fill="none" stroke="black" points="155.5,-248.5 299,-248.5"/>
<text xml:space="preserve" text-anchor="start" x="163.5" y="-231.2" font-family="Times,serif" font-size="14.00">&#45; userId: int</text>
<text xml:space="preserve" text-anchor="start" x="163.5" y="-214.7" font-family="Times,serif" font-size="14.00">&#45; name: String</text>
<text xml:space="preserve" text-anchor="start" x="163.5" y="-198.2" font-family="Times,serif" font-size="14.00">&#45; role: Role</text>
<text xml:space="preserve" text-anchor="start" x="163.5" y="-181.7" font-family="Times,serif" font-size="14.00">&#45; passwordHash: String</text>
</g>
<!-- User&#45;&gt;Role -->
<g id="edge1" class="edge">
<title>User&#45;&gt;Role</title>
<path fill="none" stroke="black" d="M230.49,-174.36C232.3,-147.39 234.5,-114.55 236.09,-90.72"/>
<text xml:space="preserve" text-anchor="middle" x="243.25" y="-142.7" font-family="Times,serif" font-size="14.00">role</text>
</g>
<!-- Media -->
<g id="node5" class="node">
<title>Media</title>
<polygon fill="none" stroke="black" points="317.12,-174.5 317.12,-273 443.38,-273 443.38,-174.5 317.12,-174.5"/>
<text xml:space="preserve" text-anchor="middle" x="380.25" y="-255.7" font-family="Times,serif" font-size="14.00">Media</text>
<polyline fill="none" stroke="black" points="317.12,-248.5 443.38,-248.5"/>
<text xml:space="preserve" text-anchor="start" x="325.12" y="-231.2" font-family="Times,serif" font-size="14.00">&#45; mediaId: int</text>
<text xml:space="preserve" text-anchor="start" x="325.12" y="-214.7" font-family="Times,serif" font-size="14.00">&#45; mediaType: String</text>
<text xml:space="preserve" text-anchor="start" x="325.12" y="-198.2" font-family="Times,serif" font-size="14.00">&#45; content: byte[]</text>
<text xml:space="preserve" text-anchor="start" x="325.12" y="-181.7" font-family="Times,serif" font-size="14.00">&#45; blobType: String</text>
</g>
<!-- Media&#45;&gt;MediaType -->
<g id="edge5" class="edge">
<title>Media&#45;&gt;MediaType</title>
<path fill="none" stroke="black" d="M371.71,-174.36C367.46,-150.32 362.39,-121.62 358.37,-98.8"/>
<text xml:space="preserve" text-anchor="middle" x="399.1" y="-142.7" font-family="Times,serif" font-size="14.00">mediaType</text>
</g>
<!-- Ticket -->
<g id="node6" class="node">
<title>Ticket</title>
<polygon fill="none" stroke="black" points="0,-326.5 0,-524 284.5,-524 284.5,-326.5 0,-326.5"/>
<text xml:space="preserve" text-anchor="middle" x="142.25" y="-506.7" font-family="Times,serif" font-size="14.00">Ticket</text>
<polyline fill="none" stroke="black" points="0,-499.5 284.5,-499.5"/>
<text xml:space="preserve" text-anchor="start" x="8" y="-482.2" font-family="Times,serif" font-size="14.00">&#45; ticketId: int</text>
<text xml:space="preserve" text-anchor="start" x="8" y="-465.7" font-family="Times,serif" font-size="14.00">&#45; assignedTo: User</text>
<text xml:space="preserve" text-anchor="start" x="8" y="-449.2" font-family="Times,serif" font-size="14.00">&#45; createdBy: User</text>
<text xml:space="preserve" text-anchor="start" x="8" y="-432.7" font-family="Times,serif" font-size="14.00">&#45; title: String = &quot;New Ticket&quot;</text>
<text xml:space="preserve" text-anchor="start" x="8" y="-416.2" font-family="Times,serif" font-size="14.00">&#45; description: String = &quot;Description of the ticket&quot;</text>
<text xml:space="preserve" text-anchor="start" x="8" y="-399.7" font-family="Times,serif" font-size="14.00">&#45; status: String = &quot;OPEN&quot;</text>
<text xml:space="preserve" text-anchor="start" x="8" y="-383.2" font-family="Times,serif" font-size="14.00">&#45; dueDate: Date</text>
<text xml:space="preserve" text-anchor="start" x="8" y="-366.7" font-family="Times,serif" font-size="14.00">&#45; location: String</text>
<text xml:space="preserve" text-anchor="start" x="8" y="-350.2" font-family="Times,serif" font-size="14.00">&#45; mediaType: String = &quot;PHOTO&quot;</text>
<text xml:space="preserve" text-anchor="start" x="8" y="-333.7" font-family="Times,serif" font-size="14.00">&#45; media: Media</text>
</g>
<!-- Ticket&#45;&gt;Status -->
<g id="edge6" class="edge">
<title>Ticket&#45;&gt;Status</title>
<path fill="none" stroke="black" d="M122.95,-326.4C120.04,-308.85 117.38,-290.67 115.5,-273.5 108.84,-212.78 106.91,-141.92 106.39,-98.64"/>
<text xml:space="preserve" text-anchor="middle" x="130.88" y="-218.7" font-family="Times,serif" font-size="14.00">status</text>
</g>
<!-- Ticket&#45;&gt;User -->
<g id="edge2" class="edge">
<title>Ticket&#45;&gt;User</title>
<path fill="none" stroke="black" d="M133.58,-326.23C135.31,-314.14 138.5,-302.27 143.75,-291.5 146.92,-284.99 151.07,-278.92 155.81,-273.3"/>
<text xml:space="preserve" text-anchor="middle" x="174.5" y="-294.7" font-family="Times,serif" font-size="14.00">assignedTo</text>
</g>
<!-- Ticket&#45;&gt;User -->
<g id="edge3" class="edge">
<title>Ticket&#45;&gt;User</title>
<path fill="none" stroke="black" d="M197.52,-326.09C200.28,-320.03 202.88,-313.97 205.25,-308 209.6,-297.02 213.36,-284.89 216.48,-273.36"/>
<text xml:space="preserve" text-anchor="middle" x="238.18" y="-294.7" font-family="Times,serif" font-size="14.00">createdBy</text>
</g>
<!-- Ticket&#45;&gt;Media -->
<g id="edge4" class="edge">
<title>Ticket&#45;&gt;Media</title>
<path fill="none" stroke="black" d="M259.16,-326.25C281.14,-307.83 303.22,-289.32 322.39,-273.25"/>
<text xml:space="preserve" text-anchor="middle" x="313.35" y="-294.7" font-family="Times,serif" font-size="14.00">media</text>
</g>
<!-- VideoPhoto -->
<g id="node7" class="node">
<title>VideoPhoto</title>
<polygon fill="none" stroke="black" points="302.75,-376 302.75,-474.5 555.75,-474.5 555.75,-376 302.75,-376"/>
<text xml:space="preserve" text-anchor="middle" x="429.25" y="-457.2" font-family="Times,serif" font-size="14.00">VideoPhoto</text>
<polyline fill="none" stroke="black" points="302.75,-450 555.75,-450"/>
<text xml:space="preserve" text-anchor="start" x="310.75" y="-432.7" font-family="Times,serif" font-size="14.00">&#45; media: Media</text>
<text xml:space="preserve" text-anchor="start" x="310.75" y="-416.2" font-family="Times,serif" font-size="14.00">&#45; analyzed: boolean = false</text>
<text xml:space="preserve" text-anchor="start" x="310.75" y="-399.7" font-family="Times,serif" font-size="14.00">&#45; result: String = &quot;No result available&quot;</text>
<text xml:space="preserve" text-anchor="start" x="310.75" y="-383.2" font-family="Times,serif" font-size="14.00">&#45; reason: String = &quot;No reasoning available&quot;</text>
</g>
<!-- VideoPhoto&#45;&gt;Media -->
<g id="edge7" class="edge">
<title>VideoPhoto&#45;&gt;Media</title>
<path fill="none" stroke="black" d="M417.33,-375.7C409.68,-344.56 399.79,-304.29 392.14,-273.17"/>
<text xml:space="preserve" text-anchor="middle" x="432.24" y="-294.7" font-family="Times,serif" font-size="14.00">media (PK)</text>
</g>
</g>
</svg>
